<?xml version="1.0" encoding="utf-8"?>
<!-- Generator: Adobe Illustrator 27.2.0, SVG Export Plug-In . SVG Version: 6.00 Build 0)  -->
<svg version="1.1" id="レイヤー_1" xmlns="http://www.w3.org/2000/svg" xmlns:xlink="http://www.w3.org/1999/xlink" x="0px"
	 y="0px" viewBox="0 0 177 44" style="enable-background:new 0 0 177 44;" xml:space="preserve">
<style type="text/css">
	.st0{fill:#C3D600;}
</style>
<g>
	<path class="st0" d="M0,0h12.393l16.172,23.762V0h12.51v42.949h-12.51L12.48,19.367v23.582H0V0z"/>
	<path class="st0" d="M83.643,30.352H59.736c0.215,1.914,0.732,3.34,1.553,4.277c1.152,1.348,2.656,2.021,4.512,2.021
		c1.172,0,2.285-0.293,3.34-0.879c0.645-0.371,1.337-1.025,2.08-1.963l11.748,1.084c-1.797,3.125-3.965,5.366-6.504,6.724
		c-2.539,1.357-6.182,2.036-10.928,2.036c-4.121,0-7.364-0.581-9.727-1.743c-2.363-1.162-4.321-3.008-5.874-5.537
		s-2.329-5.503-2.329-8.921c0-4.863,1.557-8.799,4.673-11.807c3.115-3.008,7.417-4.512,12.905-4.512
		c4.453,0,7.969,0.674,10.547,2.021s4.541,3.301,5.889,5.859s2.021,5.889,2.021,9.99V30.352z M71.514,24.639
		c-0.234-2.305-0.854-3.955-1.86-4.951c-1.006-0.996-2.329-1.494-3.97-1.494c-1.895,0-3.409,0.752-4.541,2.256
		c-0.723,0.938-1.182,2.334-1.377,4.189H71.514z"/>
	<path class="st0" d="M85.635,11.836h11.53l4.988,19.589l6.312-19.589h10.775l6.58,19.639l5.017-19.639h11.458l-11.461,31.113
		h-10.611l-6.302-18.721l-6.09,18.721H97.172L85.635,11.836z"/>
	<path class="st0" d="M143.643,34.307l11.836-1.113c0.488,1.406,1.172,2.412,2.051,3.018s2.051,0.908,3.516,0.908
		c1.601,0,2.842-0.341,3.721-1.024c0.684-0.507,1.025-1.14,1.025-1.9c0-0.858-0.45-1.521-1.348-1.989
		c-0.645-0.332-2.354-0.741-5.127-1.229c-4.141-0.721-7.017-1.39-8.628-2.004s-2.969-1.653-4.072-3.117
		c-1.104-1.463-1.655-3.132-1.655-5.005c0-2.049,0.596-3.814,1.787-5.298c1.191-1.482,2.832-2.59,4.922-3.321
		c2.09-0.731,4.893-1.098,8.408-1.098c3.71,0,6.45,0.283,8.218,0.85c1.768,0.566,3.242,1.445,4.424,2.637
		c1.182,1.191,2.163,2.803,2.944,4.834l-11.309,1.113c-0.293-0.996-0.781-1.729-1.465-2.197c-0.938-0.625-2.07-0.938-3.398-0.938
		c-1.348,0-2.329,0.239-2.944,0.717s-0.923,1.058-0.923,1.74c0,0.761,0.391,1.336,1.172,1.726c0.781,0.391,2.48,0.741,5.098,1.054
		c3.965,0.448,6.914,1.073,8.848,1.873c1.934,0.801,3.413,1.941,4.438,3.424c1.025,1.483,1.538,3.112,1.538,4.888
		c0,1.796-0.542,3.542-1.626,5.239s-2.793,3.049-5.127,4.054c-2.334,1.004-5.513,1.507-9.536,1.507
		c-5.684,0-9.731-0.811-12.144-2.432C145.874,39.6,144.326,37.295,143.643,34.307z"/>
</g>
</svg>
