<?xml version="1.0" encoding="utf-8"?>
<!-- Generator: Adobe Illustrator 27.2.0, SVG Export Plug-In . SVG Version: 6.00 Build 0)  -->
<svg version="1.1" id="レイヤー_1" xmlns="http://www.w3.org/2000/svg" xmlns:xlink="http://www.w3.org/1999/xlink" x="0px"
	 y="0px" viewBox="0 0 256 45" style="enable-background:new 0 0 256 45;" xml:space="preserve">
<style type="text/css">
	.st0{fill:#C3D600;}
</style>
<g>
	<path class="st0" d="M30.146,26.104l11.631,3.516c-0.781,3.262-2.012,5.986-3.691,8.174c-1.68,2.188-3.765,3.838-6.255,4.951
		s-5.659,1.67-9.507,1.67c-4.668,0-8.481-0.679-11.44-2.035c-2.959-1.355-5.513-3.742-7.661-7.157C1.074,31.806,0,27.434,0,22.104
		C0,15,1.89,9.54,5.669,5.724C9.448,1.908,14.795,0,21.709,0c5.41,0,9.663,1.094,12.759,3.281c3.095,2.188,5.395,5.547,6.899,10.078
		l-11.719,2.607c-0.41-1.309-0.84-2.266-1.289-2.871c-0.743-1.016-1.651-1.797-2.725-2.344c-1.074-0.547-2.275-0.82-3.604-0.82
		c-3.008,0-5.313,1.21-6.914,3.629c-1.211,1.795-1.816,4.613-1.816,8.456c0,4.761,0.722,8.023,2.168,9.788
		c1.445,1.766,3.476,2.648,6.094,2.648c2.539,0,4.458-0.713,5.757-2.139C28.618,30.889,29.561,28.818,30.146,26.104z"/>
	<path class="st0" d="M45.967,28.213c0-4.746,1.601-8.657,4.805-11.733c3.203-3.076,7.529-4.614,12.979-4.614
		c6.23,0,10.938,1.807,14.121,5.42c2.559,2.91,3.838,6.494,3.838,10.752c0,4.785-1.587,8.706-4.761,11.763
		c-3.174,3.057-7.563,4.585-13.169,4.585c-5,0-9.043-1.27-12.129-3.809C47.861,37.432,45.967,33.311,45.967,28.213z M57.92,28.184
		c0,2.773,0.561,4.824,1.685,6.152c1.123,1.328,2.534,1.992,4.233,1.992c1.718,0,3.13-0.654,4.233-1.963
		c1.103-1.309,1.655-3.408,1.655-6.299c0-2.695-0.557-4.702-1.67-6.021s-2.49-1.978-4.131-1.978c-1.739,0-3.174,0.669-4.307,2.007
		C58.486,23.413,57.92,25.449,57.92,28.184z"/>
	<path class="st0" d="M87.451,12.568h11.104v5.068c1.66-2.07,3.34-3.55,5.039-4.438s3.769-1.333,6.211-1.333
		c3.3,0,5.884,0.981,7.749,2.944c1.865,1.963,2.798,4.995,2.798,9.097v19.775h-11.982V26.572c0-1.953-0.362-3.335-1.084-4.146
		c-0.723-0.811-1.739-1.216-3.047-1.216c-1.446,0-2.618,0.547-3.516,1.641c-0.898,1.094-1.348,3.057-1.348,5.889v14.941H87.451
		V12.568z"/>
	<path class="st0" d="M141.855,0.732v11.836h6.562v8.73h-6.562v11.023c0,1.325,0.127,2.202,0.381,2.631
		c0.391,0.663,1.074,0.994,2.051,0.994c0.879,0,2.109-0.253,3.691-0.761l0.879,8.231c-2.949,0.645-5.703,0.967-8.262,0.967
		c-2.969,0-5.156-0.381-6.562-1.142s-2.446-1.916-3.12-3.467s-1.011-4.062-1.011-7.534V21.299h-4.395v-8.73h4.395V6.855
		L141.855,0.732z"/>
	<path class="st0" d="M164.971,22.646l-11.396-1.201c0.429-1.992,1.05-3.56,1.86-4.702c0.81-1.143,1.978-2.134,3.501-2.974
		c1.094-0.605,2.597-1.074,4.512-1.406c1.914-0.332,3.984-0.498,6.211-0.498c3.574,0,6.445,0.2,8.613,0.601s3.974,1.235,5.42,2.505
		c1.015,0.879,1.816,2.124,2.402,3.735s0.879,3.149,0.879,4.614v13.74c0,1.465,0.092,2.612,0.278,3.442
		c0.186,0.83,0.59,1.89,1.216,3.179h-11.191c-0.45-0.801-0.743-1.411-0.879-1.831c-0.137-0.42-0.274-1.079-0.41-1.978
		c-1.563,1.504-3.116,2.578-4.658,3.223c-2.109,0.859-4.561,1.289-7.354,1.289c-3.711,0-6.529-0.859-8.452-2.578
		c-1.924-1.719-2.886-3.838-2.886-6.357c0-2.363,0.693-4.307,2.08-5.83c1.387-1.523,3.945-2.656,7.676-3.398
		c4.472-0.898,7.373-1.528,8.701-1.89c1.328-0.361,2.734-0.835,4.219-1.421c0-1.465-0.303-2.49-0.908-3.076
		c-0.605-0.586-1.67-0.879-3.193-0.879c-1.953,0-3.418,0.312-4.395,0.938C166.055,20.381,165.439,21.299,164.971,22.646z
		 M175.312,28.916c-1.641,0.586-3.35,1.104-5.127,1.553c-2.422,0.645-3.955,1.279-4.6,1.904c-0.664,0.645-0.996,1.377-0.996,2.197
		c0,0.938,0.327,1.704,0.981,2.3c0.654,0.596,1.616,0.894,2.886,0.894c1.328,0,2.563-0.322,3.706-0.967s1.953-1.431,2.432-2.358
		c0.479-0.928,0.718-2.134,0.718-3.618V28.916z"/>
	<path class="st0" d="M217.324,31.494l11.338,1.289c-0.625,2.363-1.651,4.409-3.076,6.138c-1.426,1.729-3.248,3.071-5.464,4.028
		c-2.217,0.957-5.035,1.436-8.452,1.436c-3.301,0-6.05-0.308-8.247-0.922s-4.087-1.609-5.669-2.985s-2.823-2.99-3.721-4.845
		c-0.898-1.854-1.348-4.312-1.348-7.376c0-3.2,0.546-5.864,1.641-7.991c0.801-1.561,1.894-2.961,3.281-4.2
		c1.387-1.239,2.812-2.161,4.277-2.766c2.324-0.956,5.303-1.435,8.936-1.435c5.078,0,8.95,0.908,11.616,2.725
		s4.536,4.473,5.61,7.969l-11.221,1.494c-0.352-1.328-0.992-2.329-1.919-3.003c-0.928-0.674-2.173-1.011-3.735-1.011
		c-1.973,0-3.57,0.707-4.79,2.12c-1.221,1.414-1.831,3.554-1.831,6.42c0,2.554,0.605,4.493,1.816,5.819
		c1.211,1.325,2.754,1.988,4.629,1.988c1.562,0,2.875-0.4,3.94-1.201C216.001,34.385,216.797,33.154,217.324,31.494z"/>
	<path class="st0" d="M248.525,0.732v11.836h6.562v8.73h-6.562v11.023c0,1.325,0.127,2.202,0.381,2.631
		c0.391,0.663,1.074,0.994,2.051,0.994c0.879,0,2.109-0.253,3.691-0.761l0.879,8.231c-2.949,0.645-5.703,0.967-8.262,0.967
		c-2.969,0-5.156-0.381-6.562-1.142s-2.446-1.916-3.12-3.467s-1.011-4.062-1.011-7.534V21.299h-4.395v-8.73h4.395V6.855
		L248.525,0.732z"/>
</g>
</svg>
