<?xml version="1.0" encoding="utf-8"?>
<!-- Generator: Adobe Illustrator 27.2.0, SVG Export Plug-In . SVG Version: 6.00 Build 0)  -->
<svg version="1.1" id="レイヤー_1" xmlns="http://www.w3.org/2000/svg" xmlns:xlink="http://www.w3.org/1999/xlink" x="0px"
	 y="0px" viewBox="0 0 301 57" style="enable-background:new 0 0 301 57;" xml:space="preserve">
<style type="text/css">
	.st0{fill:#FFFFFF;}
</style>
<g>
	<path class="st0" d="M30.146,26.104l11.631,3.516c-0.781,3.262-2.012,5.986-3.691,8.174c-1.68,2.188-3.765,3.838-6.255,4.951
		s-5.659,1.67-9.507,1.67c-4.668,0-8.481-0.679-11.44-2.035c-2.959-1.355-5.513-3.742-7.661-7.157C1.074,31.806,0,27.434,0,22.104
		C0,15,1.89,9.54,5.669,5.724C9.448,1.908,14.795,0,21.709,0c5.41,0,9.663,1.094,12.759,3.281c3.095,2.188,5.395,5.547,6.899,10.078
		l-11.719,2.607c-0.41-1.309-0.84-2.266-1.289-2.871c-0.743-1.016-1.651-1.797-2.725-2.344c-1.074-0.547-2.275-0.82-3.604-0.82
		c-3.008,0-5.313,1.21-6.914,3.629c-1.211,1.795-1.816,4.613-1.816,8.456c0,4.761,0.722,8.023,2.168,9.788
		c1.445,1.766,3.476,2.648,6.094,2.648c2.539,0,4.458-0.713,5.757-2.139C28.618,30.889,29.561,28.818,30.146,26.104z"/>
	<path class="st0" d="M45.967,28.213c0-4.746,1.601-8.657,4.805-11.733c3.203-3.076,7.529-4.614,12.979-4.614
		c6.23,0,10.938,1.807,14.121,5.42c2.559,2.91,3.838,6.494,3.838,10.752c0,4.785-1.587,8.706-4.761,11.763
		c-3.174,3.057-7.563,4.585-13.169,4.585c-5,0-9.043-1.27-12.129-3.809C47.861,37.432,45.967,33.311,45.967,28.213z M57.92,28.184
		c0,2.773,0.561,4.824,1.685,6.152c1.123,1.328,2.534,1.992,4.233,1.992c1.718,0,3.13-0.654,4.233-1.963
		c1.103-1.309,1.655-3.408,1.655-6.299c0-2.695-0.557-4.702-1.67-6.021s-2.49-1.978-4.131-1.978c-1.739,0-3.174,0.669-4.307,2.007
		C58.486,23.413,57.92,25.449,57.92,28.184z"/>
	<path class="st0" d="M87.539,12.568h11.133v4.541c1.604-1.895,3.222-3.242,4.855-4.043s3.604-1.201,5.912-1.201
		c2.484,0,4.45,0.439,5.897,1.318c1.447,0.879,2.631,2.188,3.55,3.926c1.872-2.031,3.579-3.413,5.12-4.146s3.442-1.099,5.705-1.099
		c3.335,0,5.939,0.991,7.812,2.974c1.872,1.982,2.809,5.083,2.809,9.302v19.541h-11.953V25.957c0-1.406-0.273-2.451-0.817-3.135
		c-0.798-1.074-1.791-1.611-2.978-1.611c-1.401,0-2.53,0.508-3.387,1.523s-1.285,2.646-1.285,4.893v16.055h-11.953V26.543
		c0-1.367-0.079-2.295-0.235-2.783c-0.255-0.781-0.696-1.411-1.323-1.89c-0.627-0.479-1.362-0.718-2.205-0.718
		c-1.373,0-2.5,0.518-3.381,1.553s-1.323,2.734-1.323,5.098v15.879H87.539V12.568z"/>
	<path class="st0" d="M147.51,55.518V12.568h11.162v4.6c1.542-1.934,2.959-3.242,4.248-3.926c1.738-0.918,3.662-1.377,5.771-1.377
		c4.16,0,7.378,1.592,9.653,4.775c2.275,3.184,3.413,7.119,3.413,11.807c0,5.176-1.241,9.126-3.721,11.851
		c-2.48,2.725-5.615,4.087-9.404,4.087c-1.836,0-3.511-0.312-5.024-0.938c-1.514-0.625-2.867-1.553-4.058-2.783v14.854H147.51z
		 M159.463,28.213c0,2.461,0.517,4.287,1.553,5.479c1.035,1.191,2.344,1.787,3.926,1.787c1.387,0,2.549-0.571,3.486-1.714
		s1.406-3.081,1.406-5.815c0-2.52-0.488-4.37-1.465-5.552c-0.977-1.182-2.168-1.772-3.574-1.772c-1.523,0-2.793,0.596-3.809,1.787
		C159.971,23.604,159.463,25.537,159.463,28.213z"/>
	<path class="st0" d="M198.34,22.646l-11.396-1.201c0.429-1.992,1.05-3.56,1.86-4.702c0.81-1.143,1.978-2.134,3.501-2.974
		c1.094-0.605,2.597-1.074,4.512-1.406c1.914-0.332,3.984-0.498,6.211-0.498c3.574,0,6.445,0.2,8.613,0.601s3.974,1.235,5.42,2.505
		c1.015,0.879,1.816,2.124,2.402,3.735s0.879,3.149,0.879,4.614v13.74c0,1.465,0.092,2.612,0.278,3.442
		c0.186,0.83,0.59,1.89,1.216,3.179h-11.191c-0.45-0.801-0.743-1.411-0.879-1.831c-0.137-0.42-0.274-1.079-0.41-1.978
		c-1.563,1.504-3.116,2.578-4.658,3.223c-2.109,0.859-4.561,1.289-7.354,1.289c-3.711,0-6.529-0.859-8.452-2.578
		c-1.924-1.719-2.886-3.838-2.886-6.357c0-2.363,0.693-4.307,2.08-5.83c1.387-1.523,3.945-2.656,7.676-3.398
		c4.472-0.898,7.373-1.528,8.701-1.89c1.328-0.361,2.734-0.835,4.219-1.421c0-1.465-0.303-2.49-0.908-3.076
		c-0.605-0.586-1.67-0.879-3.193-0.879c-1.953,0-3.418,0.312-4.395,0.938C199.424,20.381,198.809,21.299,198.34,22.646z
		 M208.682,28.916c-1.641,0.586-3.35,1.104-5.127,1.553c-2.422,0.645-3.955,1.279-4.6,1.904c-0.664,0.645-0.996,1.377-0.996,2.197
		c0,0.938,0.327,1.704,0.981,2.3c0.654,0.596,1.616,0.894,2.886,0.894c1.328,0,2.563-0.322,3.706-0.967s1.953-1.431,2.432-2.358
		c0.479-0.928,0.718-2.134,0.718-3.618V28.916z"/>
	<path class="st0" d="M227.49,12.568h11.104v5.068c1.66-2.07,3.34-3.55,5.039-4.438s3.769-1.333,6.211-1.333
		c3.3,0,5.884,0.981,7.749,2.944c1.865,1.963,2.798,4.995,2.798,9.097v19.775h-11.982V26.572c0-1.953-0.362-3.335-1.084-4.146
		c-0.723-0.811-1.739-1.216-3.047-1.216c-1.446,0-2.618,0.547-3.516,1.641c-0.898,1.094-1.348,3.057-1.348,5.889v14.941H227.49
		V12.568z"/>
	<path class="st0" d="M264.082,12.568h12.582l6.417,20.713l5.96-20.713h11.75l-12.344,33.244c-1.406,3.792-2.841,6.352-4.305,7.682
		c-2.069,1.876-5.223,2.814-9.458,2.814c-1.719,0-4.374-0.234-7.966-0.703l-0.937-8.32c1.717,0.547,3.629,0.82,5.737,0.82
		c1.405,0,2.542-0.322,3.41-0.968c0.869-0.646,1.605-1.8,2.21-3.462L264.082,12.568z"/>
</g>
</svg>
