<?xml version="1.0" encoding="utf-8"?>
<!-- Generator: Adobe Illustrator 27.2.0, SVG Export Plug-In . SVG Version: 6.00 Build 0)  -->
<svg version="1.1" id="レイヤー_1" xmlns="http://www.w3.org/2000/svg" xmlns:xlink="http://www.w3.org/1999/xlink" x="0px"
	 y="0px" viewBox="0 0 235 44" style="enable-background:new 0 0 235 44;" xml:space="preserve">
<style type="text/css">
	.st0{fill:#C3D600;}
</style>
<g>
	<path class="st0" d="M0,42.949V0h22.119c4.102,0,7.236,0.352,9.404,1.055s3.916,2.007,5.244,3.911
		c1.328,1.904,1.992,4.224,1.992,6.958c0,2.383-0.508,4.438-1.524,6.167s-2.414,3.13-4.192,4.204
		c-1.133,0.684-2.687,1.25-4.661,1.699c1.581,0.528,2.732,1.056,3.455,1.583c0.488,0.353,1.195,1.104,2.123,2.259
		c0.927,1.153,1.547,2.043,1.859,2.668l6.427,12.445H27.25l-7.094-13.125c-0.898-1.699-1.699-2.803-2.402-3.311
		c-0.957-0.664-2.041-0.996-3.252-0.996H13.33v17.432H0z M13.33,17.402h5.596c0.605,0,1.777-0.195,3.516-0.586
		c0.879-0.176,1.597-0.625,2.153-1.348s0.835-1.553,0.835-2.49c0-1.387-0.439-2.451-1.318-3.193s-2.53-1.113-4.951-1.113h-5.83
		V17.402z"/>
	<path class="st0" d="M78.75,30.352H54.844c0.215,1.914,0.732,3.34,1.553,4.277c1.152,1.348,2.656,2.021,4.512,2.021
		c1.172,0,2.285-0.293,3.34-0.879c0.645-0.371,1.337-1.025,2.08-1.963l11.748,1.084c-1.797,3.125-3.965,5.366-6.504,6.724
		c-2.539,1.357-6.182,2.036-10.928,2.036c-4.121,0-7.364-0.581-9.727-1.743c-2.363-1.162-4.321-3.008-5.874-5.537
		s-2.329-5.503-2.329-8.921c0-4.863,1.557-8.799,4.673-11.807c3.115-3.008,7.417-4.512,12.905-4.512
		c4.453,0,7.969,0.674,10.547,2.021s4.541,3.301,5.889,5.859s2.021,5.889,2.021,9.99V30.352z M66.621,24.639
		c-0.234-2.305-0.854-3.955-1.86-4.951c-1.006-0.996-2.329-1.494-3.97-1.494c-1.895,0-3.409,0.752-4.541,2.256
		c-0.723,0.938-1.182,2.334-1.377,4.189H66.621z"/>
	<path class="st0" d="M107.432,30.762l11.338,1.289c-0.625,2.363-1.651,4.409-3.076,6.138c-1.426,1.729-3.248,3.071-5.464,4.028
		c-2.217,0.957-5.035,1.436-8.452,1.436c-3.301,0-6.05-0.308-8.247-0.922s-4.087-1.609-5.669-2.985s-2.823-2.99-3.721-4.845
		c-0.898-1.854-1.348-4.312-1.348-7.376c0-3.2,0.546-5.864,1.641-7.991c0.801-1.561,1.894-2.961,3.281-4.2
		c1.387-1.239,2.812-2.161,4.277-2.766c2.324-0.956,5.303-1.435,8.936-1.435c5.078,0,8.95,0.908,11.616,2.725
		s4.536,4.473,5.61,7.969l-11.221,1.494c-0.352-1.328-0.992-2.329-1.919-3.003c-0.928-0.674-2.173-1.011-3.735-1.011
		c-1.973,0-3.57,0.707-4.79,2.12c-1.221,1.414-1.831,3.554-1.831,6.42c0,2.554,0.605,4.493,1.816,5.819
		c1.211,1.325,2.754,1.988,4.629,1.988c1.562,0,2.875-0.4,3.94-1.201C106.108,33.652,106.904,32.422,107.432,30.762z"/>
	<path class="st0" d="M124.365,11.836h11.162v5.098c1.074-2.207,2.183-3.726,3.325-4.556s2.553-1.245,4.233-1.245
		c1.758,0,3.681,0.547,5.771,1.641l-3.691,8.496c-1.406-0.586-2.52-0.879-3.34-0.879c-1.563,0-2.773,0.645-3.633,1.934
		c-1.23,1.816-1.846,5.215-1.846,10.195v10.43h-11.982V11.836z"/>
	<path class="st0" d="M185.654,42.949h-11.133V37.91c-1.66,2.07-3.335,3.545-5.024,4.424c-1.689,0.879-3.765,1.318-6.226,1.318
		c-3.281,0-5.855-0.981-7.72-2.944c-1.865-1.963-2.798-4.985-2.798-9.067V11.836h11.982v17.109c0,1.953,0.361,3.34,1.084,4.16
		c0.722,0.82,1.738,1.23,3.047,1.23c1.425,0,2.593-0.547,3.501-1.641s1.362-3.057,1.362-5.889V11.836h11.924V42.949z"/>
	<path class="st0" d="M193.33,0h11.924v8.115H193.33V0z M193.33,11.836h11.924v31.113H193.33V11.836z"/>
	<path class="st0" d="M227.256,0v11.836h6.562v8.73h-6.562V31.59c0,1.325,0.127,2.202,0.381,2.631
		c0.391,0.663,1.074,0.994,2.051,0.994c0.879,0,2.109-0.253,3.691-0.761l0.879,8.231c-2.949,0.645-5.703,0.967-8.262,0.967
		c-2.969,0-5.156-0.381-6.562-1.142s-2.446-1.916-3.12-3.467s-1.011-4.062-1.011-7.534V20.566h-4.395v-8.73h4.395V6.123L227.256,0z"
		/>
</g>
</svg>
